<?xml version="1.0" standalone="no"?><!DOCTYPE svg PUBLIC "-//W3C//DTD SVG 1.1//EN" "http://www.w3.org/Graphics/SVG/1.1/DTD/svg11.dtd"><svg t="1699433177654" class="icon" viewBox="0 0 1079 1024" version="1.1" xmlns="http://www.w3.org/2000/svg" p-id="1684" xmlns:xlink="http://www.w3.org/1999/xlink" width="210.7421875" height="200"><path d="M229.024411 729.287143h694.559184V868.19898H229.024411z" fill="#29C287" p-id="1685"></path><path d="M923.583595 902.926939H229.024411a34.727959 34.727959 0 0 1-34.727959-34.727959V729.287143A34.727959 34.727959 0 0 1 229.024411 694.559184h694.559184a34.727959 34.727959 0 0 1 34.72796 34.727959V868.19898a34.727959 34.727959 0 0 1-34.72796 34.727959z m-659.831224-69.455918h625.103265v-69.455919H263.752371z m0 0" fill="#29C287" p-id="1686"></path><path d="M90.112575 382.007551h555.647347V520.919388H90.112575z" fill="#FFC107" p-id="1687"></path><path d="M645.759922 555.647347H90.112575A34.727959 34.727959 0 0 1 55.384615 520.919388V382.007551A34.727959 34.727959 0 0 1 90.112575 347.279592h555.647347a34.727959 34.727959 0 0 1 34.727959 34.727959V520.919388a34.727959 34.727959 0 0 1-34.727959 34.727959z m-520.919388-69.455918h486.191429v-69.455919H124.840534z m0 0" fill="#FFC107" p-id="1688"></path><path d="M506.848085 34.727959H923.583595V173.639796H506.848085z" fill="#706EE7" p-id="1689"></path><path d="M923.583595 208.367755H506.848085a34.727959 34.727959 0 0 1-34.727959-34.727959V34.727959A34.727959 34.727959 0 0 1 506.848085 0H923.583595a34.727959 34.727959 0 0 1 34.72796 34.727959V173.639796a34.727959 34.727959 0 0 1-34.72796 34.727959z m-382.007551-69.455918h347.279592V69.455918h-347.279592z m0 0" fill="#706EE7" p-id="1690"></path></svg>